<svg width="116" height="64" viewBox="0 0 116 64" fill="none" xmlns="http://www.w3.org/2000/svg">
<g clip-path="url(#clip0_1088_5078)">
<mask id="mask0_1088_5078" style="mask-type:luminance" maskUnits="userSpaceOnUse" x="0" y="0" width="116" height="64">
<path d="M115.623 0H0V64H115.623V0Z" fill="white"/>
</mask>
<g mask="url(#mask0_1088_5078)">
<path d="M115.623 -1.64062L115.624 55.9849C115.624 57.3845 115.274 58.7793 114.573 59.9927C113.819 61.2991 112.678 62.3714 111.343 63.0689C110.525 63.4779 109.669 63.7745 108.765 63.9107C107.989 64.0274 107.194 64.0303 106.418 63.9146C104.845 63.6801 103.383 62.9512 102.214 61.8775L67.2226 29.7515C64.1627 26.9424 59.4621 26.9424 56.4023 29.7515L21.4112 61.8775C20.5921 62.6295 19.6254 63.2208 18.5723 63.5816C17.854 63.8277 17.0977 63.9671 16.3389 63.9947C14.5846 64.0587 12.8231 63.5277 11.3848 62.5239C10.1118 61.6355 9.10556 60.3799 8.54197 58.9312C8.19487 58.039 8.00095 57.0509 8.00095 55.9849L8 -1.64062H115.623Z" fill="black"/>
<path d="M105.623 -4.24414V47.9844C105.623 49.0555 105.354 50.1019 104.84 50.9922C104.286 51.9519 103.437 52.7569 102.434 53.2852C101.774 53.6138 101.124 53.8336 100.466 53.9326C99.8827 54.0203 99.2874 54.0214 98.7119 53.9355C97.5583 53.7635 96.4589 53.2236 95.5654 52.4033L60.5742 20.2773C56.7494 16.7661 50.8736 16.7661 47.0488 20.2773L12.0576 52.4033C11.429 52.9805 10.6986 53.4227 9.92285 53.6885C9.39145 53.8705 8.82894 53.9745 8.26465 53.9951C6.9535 54.0428 5.61791 53.6432 4.52832 52.8828C3.5697 52.2137 2.82032 51.2719 2.40527 50.2051C2.149 49.5463 2.00002 48.8045 2 47.9844V-4.24414H105.623Z" fill="#A47BED" stroke="black" stroke-width="4"/>
</g>
</g>
<defs>
<clipPath id="clip0_1088_5078">
<rect width="116" height="64" fill="white"/>
</clipPath>
</defs>
</svg>
