<svg width="210" height="210" viewBox="0 0 210 210" fill="#FFABE7" xmlns="http://www.w3.org/2000/svg">
<path d="M90.6436 16.4707C98.7515 8.98765 111.249 8.98765 119.356 16.4707C125.127 21.7963 133.052 24.1241 140.785 22.7637C151.652 20.852 162.164 27.6075 164.939 38.2861C166.915 45.886 172.324 52.1285 179.565 55.165C189.74 59.4318 194.931 70.7986 191.492 81.2822C189.045 88.7434 190.221 96.9192 194.671 103.389C200.924 112.479 199.145 124.848 190.585 131.809C184.492 136.762 181.061 144.277 181.307 152.125C181.652 163.153 173.469 172.596 162.505 173.823C154.701 174.697 147.752 179.163 143.716 185.898C138.044 195.363 126.055 198.883 116.167 193.987C109.13 190.503 100.87 190.503 93.833 193.987C83.9453 198.883 71.9555 195.363 66.2842 185.898C62.248 179.163 55.2987 174.697 47.4951 173.823C36.5306 172.596 28.3478 163.153 28.6934 152.125C28.9394 144.277 25.5077 136.762 19.415 131.809C10.8545 124.848 9.07616 112.479 15.3291 103.389C19.7792 96.9192 20.955 88.7434 18.5078 81.2822C15.0693 70.7986 20.2599 59.4318 30.4346 55.165C37.676 52.1285 43.0855 45.886 45.0605 38.2861C47.8357 27.6075 58.3484 20.852 69.2148 22.7637C76.9483 24.1241 84.8733 21.7963 90.6436 16.4707Z" stroke="black" stroke-width="4"/>
</svg>
