<svg width="128" height="128" viewBox="0 0 128 128" fill="none" xmlns="http://www.w3.org/2000/svg">
<mask id="mask0_1087_4928" style="mask-type:alpha" maskUnits="userSpaceOnUse" x="0" y="0" width="128" height="128">
<rect width="128" height="128" fill="white"/>
</mask>
<g mask="url(#mask0_1087_4928)">
<path d="M38.4615 109.531C36.1451 120.997 26.0045 119.198 25.9426 119.192C19.799 118.61 14.6246 112.319 13.5032 95.1603C13.0569 85.6983 14.0211 73.3102 15.5623 69.2957C14.4305 68.5034 13.781 68.0179 12.8132 67.1641C12.8132 67.1641 8.66778 68.5226 7.57776 68.5226C2.22051 68.5226 -0.284225 64.8059 0.0255676 60.9704C0.33536 57.1349 2.41714 55.3959 7.8809 54.0403L8.02581 52.6957C2.17714 51.569 0.445277 46.0892 2.70376 41.9947C6.19529 37.0137 10.7029 39.3055 12.1632 39.3055C15.5125 33.9352 17.2867 32.336 20.2846 31.7595C20.0621 30.5389 20.9003 24.2738 21.5965 17.6391C22.2044 11.3702 23.1008 8.50809 27.8705 6.77233C34.7698 5.04634 39.9844 13.1081 44.6788 23.5806C47.6985 21.6391 51.9583 22.2567 59.8819 23.5806C61.4521 18.433 62.4474 15.5211 65.0228 10.3167C66.7202 7.52519 69.534 6.34638 72.0958 6.48101C77.3061 6.75484 80.3742 10.4858 82.3994 19.938C82.8845 23.1035 83.2648 24.8134 84.4831 27.7145C85.8815 32.5619 83.3884 35.4024 80.7417 36.6669C86.662 34.7401 90.1095 37.6508 91.2945 42.605C92.3263 42.1686 96.5219 41.7057 99.002 45.3583C101.482 49.0108 99.9447 52.9845 97.5628 54.7915C100.826 55.1479 101.952 55.6723 103.513 57.2177C104.186 54.4071 105.298 51.9378 106.805 49.5743C110.144 44.3404 117.557 43.3648 121.358 44.7729C125.16 46.181 128 50.4384 128 56.3763C128 65.9614 120.471 83.7573 110.742 87.8123C111.546 96.8344 111.395 103.85 108.974 108.752C106.553 113.653 103.183 115.27 97.1837 114.983C91.1843 114.696 87.757 112.7 87.0143 108.509L80.009 109.14C79.503 111.597 78.4295 116.763 72.3887 117.457C68.0476 117.956 62.6881 117.565 60.5899 116.786C56.5567 115.29 54.2832 111.73 53.5453 110.009C53.5453 110.009 47.8527 109.01 43.3542 109.432C42.5093 109.512 41.669 109.684 40.8203 109.683C40.3432 109.683 39.6259 109.647 38.4615 109.531Z" fill="#F6F5F8"/>
<path fill-rule="evenodd" clip-rule="evenodd" d="M49.0217 99.9483C45.757 99.9693 42.5129 99.9902 39.4206 99.4797Z" fill="black"/>
<path d="M24.15 73.5151C24.814 71.0039 25.7756 67.3676 23.3735 66.674C18.7618 65.3491 18.2804 81.0262 18.1185 86.3004C17.9099 93.0924 18.0002 119.483 30.5395 113.023C33.581 111.453 33.8067 106.258 34.419 103.362C36.7505 103.147 39.0659 104.39 41.3858 104.022C46.3963 103.227 52.2514 104.39 57.3912 104.763C57.5441 106.92 58.0445 108.809 59.6871 110.358C62.4244 112.937 67.1684 111.986 70.6283 112.246C74.9711 112.568 75.5724 107.148 75.1119 103.963C80.6672 103.826 86.3045 103.295 91.7919 102.448C91.7262 103.816 91.324 105.245 91.4796 106.617C91.8327 109.737 96.7712 109.571 98.9463 109.711C107.372 110.25 107.102 93.2567 105.161 83.6594C118.801 83.6962 130.278 45.1034 116.111 48.5377C108.245 50.4446 107.783 59.1026 106.294 65.6704C105.518 69.0904 103.281 71.5545 101.159 74.2219C100.248 72.6699 88.0677 62.029 87.4397 68.6192C87.2127 71.0164 95.1961 73.6219 96.5832 75.3058C102.147 82.0652 103.013 96.3759 100.11 104.4C99.4802 106.138 97.4799 105.201 95.9995 104.976C97.071 96.0555 89.9978 98.6925 83.9212 98.8462C81.6498 98.9038 72.5076 98.488 70.8814 101.263C69.7224 103.246 71.5031 105.692 70.5622 107.801C68.6947 107.685 64.1542 108.475 62.7268 107.133C60.8075 105.323 62.8635 101.442 59.5287 100.553C56.1131 99.9027 52.5553 99.9256 49.0217 99.9483C45.757 99.9693 42.5129 99.9902 39.4206 99.4797C36.6372 99.0198 31.8209 97.8128 30.4013 101.26C29.6668 103.63 29.8439 106.987 28.4556 109.092C19.8851 111.363 22.6601 79.1493 24.15 73.5151ZM106.331 79.3263C105.587 79.754 104.938 80.1445 104.382 80.5C104.09 79.5397 103.785 78.7556 103.482 78.2021C108.681 74.9224 110.175 68.2615 111.467 62.5001C111.694 61.4861 111.916 60.5 112.15 59.5651C112.214 59.3071 112.28 59.0124 112.35 58.6944C112.786 56.7312 113.419 53.8814 115.273 53.2967C116.515 52.9058 118.948 52.1401 119.189 53.9066C119.95 59.4994 111.701 76.2389 106.331 79.3263Z" fill="black"/>
<path d="M19.5138 36.6313C21.3839 34.472 24.7322 37.3683 22.8648 39.5308C18.9843 44.0205 17.3697 48.7502 16.7969 54.6276C16.9576 57.6113 18.4099 59.6155 20.7664 61.2328C23.1213 62.8499 20.6161 66.5013 18.26 64.8862C14.6854 62.4328 12.5795 58.866 12.3553 54.5243C13.0073 47.6381 14.9627 41.8967 19.5138 36.6313Z" fill="black"/>
<path d="M85.9981 41.8702C86.5368 43.9421 87.571 45.9254 88.397 47.892C89.9564 52.6144 90.2239 58.5314 88.8611 63.3291C88.0793 66.0803 83.817 64.8665 84.5983 62.1169C85.7451 58.0789 85.2646 53.4105 84.2204 49.3962C83.3616 47.2856 82.286 45.1985 81.7106 42.9857C80.9935 40.2204 85.2771 39.1064 85.9981 41.8702Z" fill="black"/>
<path d="M31.1531 11.129C35.1327 13.7678 37.7999 19.5365 39.4481 23.8386C39.5603 24.1002 39.7072 24.2912 39.8888 24.5107C40.666 25.4533 40.5345 26.8506 39.5934 27.63C38.6508 28.4085 37.2495 28.2758 36.4698 27.3342C36.1808 26.9849 35.6412 26.3505 35.312 25.4206C34.1764 22.456 32.6033 19.6154 30.7223 17.0568C29.814 25.0548 29.3104 30.3607 29.2888 30.5884C29.0168 33.4327 24.6103 33.0155 24.8769 30.1707C24.9011 29.9162 25.4453 24.1584 26.4276 15.5851C26.7172 13.0571 27.8457 9.542 31.1531 11.129Z" fill="black"/>
<path d="M72.3282 10.7242L72.8406 10.8683C75.5375 12.1423 76.3882 15.3963 77.0512 18.0485C77.9462 21.6295 78.3123 25.3841 79.8 28.7766C80.9467 31.3942 76.8899 33.1752 75.7407 30.5571C75.2228 29.376 74.8361 28.2772 74.5001 27.0402C73.6697 23.6028 73.2332 20.0182 72.025 16.6814C70.1764 21.1106 67.989 25.5687 67.5291 30.4186C67.3978 31.7996 65.7277 32.8172 64.397 32.6912L48.0161 31.1401C45.171 30.8707 45.5896 26.4589 48.4339 26.7282L63.4016 28.1455C64.4331 22.6879 66.6894 17.1457 69.0477 12.1306C69.6905 10.9992 71.0812 10.4843 72.3282 10.7242Z" fill="black"/>
<path d="M59.7932 56.743C63.6041 57.9064 59.7084 64.3277 58.5622 65.6119C56.2473 66.6915 52.7165 66.5417 51.1996 64.2193C48.6833 66.4 43.9187 64.2714 43.0993 61.2526C42.7687 60.0293 42.7847 58.3345 42.8605 57.5306C43.0011 56.0457 44.3842 55.3611 45.715 55.6186C48.3935 56.4353 45.9195 60.3026 48.451 60.5596C49.2979 58.8997 51.0539 57.4005 52.9269 58.7403C53.9404 59.4658 54.2732 60.6582 54.8468 61.6955C57.3421 62.692 56.4002 56.0863 59.7932 56.743Z" fill="black"/>
<path d="M35.7807 42.2713C36.0238 41.0728 37.1931 40.2985 38.392 40.5407C41.746 41.2223 39.9294 50.2179 36.5704 49.5406C33.4471 48.9072 35.3887 44.2119 35.7807 42.2713Z" fill="black"/>
<path d="M63.2839 41.5935C66.2834 41.8775 65.8004 50.1162 62.9285 50.1671C59.7519 50.222 60.6884 45.4981 60.8691 43.5905C60.9844 42.3722 62.0656 41.4781 63.2839 41.5935Z" fill="black"/>
<path d="M23.0253 54.61C24.247 54.552 25.2877 55.4994 25.3467 56.7208C25.4037 57.9423 24.458 58.9799 23.2363 59.038C22.9946 59.0494 22.6906 59.0209 20.0808 59.7217C17.4536 60.4271 12.6705 61.8214 7.69893 63.2702C6.52404 63.6126 5.29325 62.9373 4.95087 61.7624C4.6111 60.5889 5.28513 59.361 6.45829 59.0186C11.4045 57.5772 16.249 56.1651 18.9339 55.4442C21.6308 54.72 22.2998 54.6446 23.0253 54.61Z" fill="#303030"/>
<path d="M98.6177 59.242C99.8357 59.3573 100.73 60.4389 100.615 61.6568C100.499 62.8751 99.4183 63.7692 98.1999 63.6539L78.5619 61.7944C77.3437 61.6789 76.4495 60.5978 76.5648 59.3796C76.6806 58.1618 77.7617 57.2674 78.9796 57.3825L98.6177 59.242Z" fill="#303030"/>
<path d="M6.63042 44.759C6.89996 43.5668 8.08713 42.8164 9.27991 43.0841C13.9069 44.1255 18.5397 45.1389 23.0842 46.5039C24.2554 46.8557 24.921 48.0903 24.5706 49.2616C24.2186 50.4336 22.9807 51.0997 21.8086 50.7476C17.3632 49.4123 12.8314 48.4272 8.30532 47.4085C7.1125 47.139 6.36186 45.9523 6.63042 44.759Z" fill="#303030"/>
<path d="M92.7194 46.7463C93.8924 46.4024 95.1225 47.0731 95.4683 48.2455C95.8133 49.4188 95.1419 50.6483 93.9691 50.9944C89.1172 52.4217 84.2117 53.6564 79.6692 55.9307C78.5756 56.4769 77.246 56.0337 76.6982 54.9408C76.1513 53.8467 76.5946 52.5131 77.6885 51.9655C82.4674 49.5727 87.6135 48.2483 92.7194 46.7463Z" fill="#303030"/>
<path d="M79.5211 68.5359C80.5255 67.8387 81.9042 68.0895 82.6026 69.0928C85.0656 72.641 74.8989 76.1156 73.007 76.0873C70.633 76.0518 68.3478 76.4347 65.9905 76.5488C63.2736 76.6801 60.5648 76.4176 57.8613 76.1834C58.2348 77.85 56.7422 78.8312 55.3804 79.2914C53.9829 79.897 52.741 80.9622 51.467 81.7813C50.78 82.4739 50.2556 83.3209 49.5927 84.0382C47.7828 85.9957 45.2701 86.9503 42.6408 86.3881C40.5122 85.9318 39.198 83.7724 37.7996 82.2868C35.238 79.5653 33.1263 76.1691 31.4047 72.8784C28.0262 72.1781 24.8282 71.413 21.7258 69.871C20.6319 69.3255 20.185 67.9938 20.7292 66.8988C21.274 65.8046 22.6063 65.3591 23.7014 65.9022C34.3219 71.1814 48.6603 70.9524 60.0377 71.9293C64.4673 72.3096 68.6695 71.5894 73.0745 71.6553C75.2544 71.6879 77.8391 69.704 79.5211 68.5359Z" fill="#F44A4A"/>
</g>
</svg>
