<svg width="250" height="250" viewBox="0 0 250 250" fill="none" xmlns="http://www.w3.org/2000/svg">
<mask id="mask0_1088_5097" style="mask-type:alpha" maskUnits="userSpaceOnUse" x="0" y="0" width="250" height="250">
<rect width="250" height="250" fill="white"/>
</mask>
<g mask="url(#mask0_1088_5097)">
<path fill-rule="evenodd" clip-rule="evenodd" d="M230.067 140.467H245V80.7339H230.067V65.8005H215.133V50.8672H197.539L21 125.311V140.467H35.9333V155.401H50.8667V170.334H80.7333V215.134H110.6V200.201H125.533V185.267H140.467V170.334H215.133V155.401H230.067V140.467Z" fill="black"/>
<path fill-rule="evenodd" clip-rule="evenodd" d="M223 132.467H238V72.7339H223V57.8005H208V42.8672H43V57.8005H28V72.7339H13V132.467H28V147.401H43V162.334H73V207.134H103V192.201H118V177.267H133V162.334H208V147.401H223V132.467Z" fill="#F6F5F8"/>
<path d="M206 44.8672V59.8008H221V74.7334H236V130.467H221V145.4H206V160.334H131V175.268H116V190.2H101V205.134H75V160.334H45V145.4H30V130.467H15V74.7334H30V59.8008H45V44.8672H206Z" stroke="black" stroke-width="4"/>
<path d="M153.314 128.095H64.9688V116.662H153.314V128.095Z" fill="#DCD8E4"/>
<path d="M141.881 108.347H64.9688V96.9138H141.881V108.347Z" fill="#DCD8E4"/>
<path d="M185.534 88.599H64.9688V77.166H185.534V88.599Z" fill="#DCD8E4"/>
</g>
</svg>
