<svg width="300" height="300" viewBox="0 0 300 300" fill="none" xmlns="http://www.w3.org/2000/svg">
<mask id="mask0_1616_6683" style="mask-type:alpha" maskUnits="userSpaceOnUse" x="0" y="0" width="300" height="300">
<rect width="300" height="299.999" fill="white"/>
</mask>
<g mask="url(#mask0_1616_6683)">
<path d="M150.291 186.118C150.602 185.938 150.985 185.938 151.296 186.118L234.053 234.201C234.718 234.587 234.716 235.548 234.049 235.932L151.292 283.552C150.984 283.73 150.604 283.73 150.295 283.552L67.5381 235.932C66.8714 235.548 66.8693 234.587 67.5345 234.201L150.291 186.118Z" fill="#1F1F1F"/>
<path fill-rule="evenodd" clip-rule="evenodd" d="M149.833 68.9121L234.587 117.682V215.221L149.833 263.991L65.0781 215.221V117.682L149.833 68.9121ZM70.4652 214.187L148.037 258.822V169.552L70.4652 214.187ZM151.629 258.822L229.199 214.187L151.629 169.552V258.822ZM68.6703 211.086L146.24 166.451L68.6703 121.816V211.086ZM153.424 166.451L230.995 211.086V121.816L153.424 166.451ZM70.4652 118.716L148.037 163.35V74.0796L70.4652 118.716ZM151.629 163.35L229.199 118.716L151.629 74.0796V163.35Z" fill="black"/>
<path fill-rule="evenodd" clip-rule="evenodd" d="M148.037 258.822L70.4652 214.187L148.037 169.552V258.822Z" fill="#F6F5F8"/>
<path fill-rule="evenodd" clip-rule="evenodd" d="M229.199 214.187L151.629 258.822V169.552L229.199 214.187Z" fill="#F6F5F8"/>
<path fill-rule="evenodd" clip-rule="evenodd" d="M149.833 68.9121L234.587 117.682V215.221L149.833 263.991L65.0781 215.221V117.682L149.833 68.9121ZM70.4652 214.187L148.037 258.822V169.552L70.4652 214.187ZM151.629 258.822L229.199 214.187L151.629 169.552V258.822ZM68.6703 211.086L146.24 166.451L68.6703 121.816V211.086ZM153.424 166.451L230.995 211.086V121.816L153.424 166.451ZM70.4652 118.716L148.037 163.35V74.0796L70.4652 118.716ZM151.629 163.35L229.199 118.716L151.629 74.0796V163.35Z" stroke="black"/>
<path fill-rule="evenodd" clip-rule="evenodd" d="M148.037 258.822L70.4652 214.187L148.037 169.552V258.822Z" stroke="black"/>
<path fill-rule="evenodd" clip-rule="evenodd" d="M229.199 214.187L151.629 258.822V169.552L229.199 214.187Z" stroke="black"/>
<path d="M285.055 228.477C286.068 228.204 287.111 228.804 287.384 229.817L291.836 246.327C292.109 247.34 291.51 248.382 290.497 248.656L273.987 253.109C272.974 253.382 271.931 252.782 271.657 251.769C271.384 250.756 271.984 249.713 272.997 249.44L285.258 246.132C284.783 245.54 284.691 244.695 285.092 243.998C285.493 243.3 286.271 242.954 287.022 243.067L283.715 230.806C283.442 229.793 284.042 228.75 285.055 228.477Z" fill="#1F1F1F"/>
<path d="M12.7121 229.218C12.9908 228.207 14.0367 227.613 15.0481 227.891C16.0597 228.17 16.6538 229.216 16.3752 230.228L12.9914 242.508C13.7195 242.432 14.458 242.781 14.843 243.458C15.2276 244.136 15.1493 244.948 14.7111 245.535L26.9924 248.918C28.004 249.197 28.5982 250.244 28.3195 251.255C28.0407 252.267 26.9951 252.861 25.9836 252.582L9.49727 248.04C8.48614 247.762 7.89177 246.716 8.17012 245.705L12.7121 229.218Z" fill="#1F1F1F"/>
<path d="M272.039 236.49C272.562 235.58 273.724 235.267 274.633 235.79L281.159 239.543C282.069 240.067 282.383 241.229 281.86 242.138C281.336 243.048 280.174 243.361 279.265 242.837L272.738 239.083C271.829 238.56 271.516 237.399 272.039 236.49Z" fill="#1F1F1F"/>
<path d="M25.008 235.499C25.9203 234.981 27.0805 235.301 27.5988 236.213C28.1171 237.126 27.7974 238.286 26.885 238.804L20.507 242.426C19.5948 242.944 18.4355 242.625 17.9172 241.713C17.3992 240.801 17.7189 239.641 18.6311 239.123L25.008 235.499Z" fill="#1F1F1F"/>
<path d="M258.987 228.982C259.51 228.073 260.671 227.759 261.58 228.282L268.107 232.036C269.016 232.559 269.33 233.721 268.807 234.63C268.284 235.54 267.122 235.853 266.212 235.33L259.686 231.576C258.777 231.052 258.464 229.891 258.987 228.982Z" fill="#1F1F1F"/>
<path d="M37.7639 228.254C38.6761 227.736 39.8362 228.055 40.3547 228.967C40.873 229.88 40.5532 231.04 39.6408 231.558L33.2629 235.181C32.3506 235.699 31.1913 235.379 30.6731 234.467C30.1551 233.555 30.4739 232.395 31.3859 231.876L37.7639 228.254Z" fill="#1F1F1F"/>
<path d="M50.5197 221.008C51.432 220.49 52.5922 220.81 53.1106 221.722C53.6287 222.635 53.3091 223.794 52.3967 224.312L46.0188 227.935C45.1064 228.453 43.9471 228.133 43.4289 227.221C42.9111 226.309 43.23 225.15 44.1418 224.631L50.5197 221.008Z" fill="#1F1F1F"/>
<path d="M245.934 221.474C246.457 220.565 247.618 220.251 248.528 220.774L255.054 224.528C255.964 225.051 256.277 226.213 255.754 227.123C255.231 228.032 254.069 228.345 253.159 227.822L246.633 224.068C245.724 223.545 245.411 222.384 245.934 221.474Z" fill="#1F1F1F"/>
<path d="M60.0871 215.574C60.9994 215.056 62.1596 215.375 62.6779 216.288C63.1961 217.2 62.8764 218.36 61.9641 218.878L58.7746 220.69C57.8624 221.208 56.703 220.888 56.1848 219.976C55.6668 219.064 55.9856 217.904 56.8977 217.385L60.0871 215.574Z" fill="#1F1F1F"/>
<path d="M236.144 215.843C236.634 214.991 237.686 214.662 238.565 215.055L238.738 215.143L242.001 217.02C242.911 217.543 243.225 218.705 242.701 219.615C242.178 220.524 241.016 220.837 240.107 220.314L236.843 218.437C235.934 217.914 235.621 216.753 236.144 215.843Z" fill="#1F1F1F"/>
<path d="M149.692 58.2299C150.741 58.2302 151.591 59.0812 151.591 60.1303V63.8237L151.581 64.018C151.484 64.9759 150.675 65.7239 149.692 65.7241C148.642 65.7239 147.791 64.8729 147.791 63.8237V60.1303C147.791 59.0812 148.642 58.2301 149.692 58.2299Z" fill="#1F1F1F"/>
<path d="M149.692 43.4555C150.741 43.4558 151.591 44.3068 151.591 45.3559V52.7426C151.591 53.7918 150.741 54.6428 149.692 54.643C148.642 54.6428 147.791 53.7919 147.791 52.7426V45.3559C147.791 44.3068 148.642 43.4557 149.692 43.4555Z" fill="#1F1F1F"/>
<path d="M149.692 28.6811C150.741 28.6814 151.591 29.5324 151.591 30.5815V37.9682C151.591 39.0174 150.741 39.8684 149.692 39.8686C148.642 39.8684 147.791 39.0175 147.791 37.9682V30.5815C147.791 29.5324 148.642 28.6813 149.692 28.6811Z" fill="#1F1F1F"/>
<path d="M149.692 13.9067C150.741 13.9069 151.591 14.758 151.591 15.8071V23.1938C151.591 24.243 150.741 25.094 149.692 25.0942C148.642 25.094 147.791 24.243 147.791 23.1938V15.8071C147.791 14.758 148.642 13.9069 149.692 13.9067Z" fill="#1F1F1F"/>
<path d="M148.348 3.38229C149.09 2.64069 150.292 2.64091 151.034 3.38229L163.126 15.4741C163.868 16.216 163.868 17.4186 163.126 18.1606C162.384 18.9025 161.182 18.9026 160.44 18.1606L151.441 9.16159C151.152 9.84209 150.477 10.3196 149.692 10.3198C148.906 10.3196 148.231 9.84213 147.942 9.16159L138.944 18.1606C138.202 18.9025 136.998 18.9026 136.256 18.1606C135.515 17.4186 135.514 16.2159 136.256 15.4741L148.348 3.38229Z" fill="#1F1F1F"/>
<path d="M201.254 261.481C202.242 260.987 203.444 261.387 203.938 262.375C206.503 267.506 208.574 272.916 210.706 278.085C212.856 283.301 215.091 288.334 218.037 292.963C218.63 293.895 218.355 295.132 217.423 295.725C216.492 296.318 215.255 296.043 214.662 295.111C211.517 290.168 209.174 284.863 207.008 279.611C204.824 274.312 202.84 269.124 200.36 264.164C199.866 263.177 200.267 261.975 201.254 261.481Z" fill="#1F1F1F"/>
<path d="M219.524 255.014C219.814 253.948 220.913 253.32 221.979 253.61C223.471 254.016 224.705 254.615 225.746 255.17C226.854 255.761 227.579 256.201 228.377 256.534C229.396 256.959 229.878 258.129 229.454 259.149C229.029 260.168 227.857 260.651 226.837 260.226C225.806 259.796 224.734 259.164 223.864 258.7C222.926 258.199 221.997 257.76 220.928 257.469C219.863 257.179 219.234 256.08 219.524 255.014Z" fill="#1F1F1F"/>
<path fill-rule="evenodd" clip-rule="evenodd" d="M90.604 55.5176C91.7086 55.5176 92.604 56.413 92.604 57.5176C92.604 58.6221 91.7086 59.5176 90.604 59.5176C86.1244 59.5176 81.163 60.2308 78.0054 62.6797C75.9436 64.2788 74.5353 66.9195 74.0083 69.791C76.3528 68.9948 78.8448 68.7559 81.3775 69.3916C84.5805 70.1957 86.9395 71.6603 88.3863 73.5586C89.845 75.4727 90.2867 77.7256 89.7798 79.7988C88.7423 84.0419 84.1202 86.6727 78.5738 85.1758C73.9586 83.93 71.3295 80.4039 70.2954 76.4414C68.2511 78.0695 66.3143 80.16 64.6109 82.4521C62.233 85.6517 60.3998 89.1155 59.396 91.9834C59.0311 93.0259 57.8897 93.5758 56.8472 93.2109C55.8049 92.8459 55.2558 91.7045 55.6206 90.6621C56.7734 87.3685 58.811 83.5501 61.3999 80.0664C63.7373 76.9214 66.6025 73.9487 69.7847 71.8818C69.9006 67.2551 71.8366 62.4018 75.5542 59.5186C79.8308 56.202 85.9732 55.5176 90.604 55.5176ZM80.4038 73.2715C78.3227 72.7491 76.137 73.0861 73.9038 74.1436C74.3968 77.6592 76.3294 80.4272 79.6167 81.3145C83.4557 82.3504 85.4972 80.4718 85.8941 78.8486C86.1042 77.989 85.9564 76.97 85.2046 75.9834C84.4404 74.9807 82.9668 73.9148 80.4038 73.2715Z" fill="#1F1F1F"/>
</g>
</svg>
