<?xml version="1.0" encoding="utf-8"?>
<!-- Generator: Adobe Illustrator 27.9.0, SVG Export Plug-In . SVG Version: 6.00 Build 0)  -->
<svg version="1.1" id="Layer_1" xmlns="http://www.w3.org/2000/svg" xmlns:xlink="http://www.w3.org/1999/xlink" x="0px" y="0px"
	 viewBox="0 0 144 144" style="enable-background:new 0 0 144 144;" xml:space="preserve">
<style type="text/css">
	.st0{fill:#DAC7F5;}
</style>
<g>
	<path class="st0" d="M115,51V33h-4v-4H79v4h-4v26h-4v4h-6v4h-6v4h-4v4h-8v-4h-4v-4h-4v-8h-4v24h4v4h4v4h4v4h4v4h4v16h8v-4h-4v-4h4
		v-4h4v-4h4v4h4v12h8v-4h-4V95h4v-4h4v-6h4V71h4v4h4v-8h-8v-8h16v-4H95v-4H115z M87,39h-4v-4h4V39z"/>
	<path class="st0" d="M109,51V33h-4v-4H73v4h-4v26h-4v4h-6v4h-6v4h-4v4h-8v-4h-4v-4h-4v-8h-4v24h4v4h4v4h4v4h4v4h4v16h8v-4h-4v-4h4
		v-4h4v-4h4v4h4v12h8v-4h-4V95h4v-4h4v-6h4V71h4v4h4v-8h-8v-8h16v-4H89v-4H109z M81,39h-4v-4h4V39z"/>
	<path class="st0" d="M109,53V35h-4v-4H73v4h-4v26h-4v4h-6v4h-6v4h-4v4h-8v-4h-4v-4h-4v-8h-4v24h4v4h4v4h4v4h4v4h4v16h8v-4h-4v-4h4
		v-4h4v-4h4v4h4v12h8v-4h-4V97h4v-4h4v-6h4V73h4v4h4v-8h-8v-8h16v-4H89v-4H109z M81,41h-4v-4h4V41z"/>
	<path class="st0" d="M115,53V35h-4v-4H79v4h-4v26h-4v4h-6v4h-6v4h-4v4h-8v-4h-4v-4h-4v-8h-4v24h4v4h4v4h4v4h4v4h4v16h8v-4h-4v-4h4
		v-4h4v-4h4v4h4v12h8v-4h-4V97h4v-4h4v-6h4V73h4v4h4v-8h-8v-8h16v-4H95v-4H115z M87,41h-4v-4h4V41z"/>
	<path class="st0" d="M113,53V35h-4v-4H77v4h-4v26h-4v4h-6v4h-6v4h-4v4h-8v-4h-4v-4h-4v-8h-4v24h4v4h4v4h4v4h4v4h4v16h8v-4h-4v-4h4
		v-4h4v-4h4v4h4v12h8v-4h-4V97h4v-4h4v-6h4V73h4v4h4v-8h-8v-8h16v-4H93v-4H113z M85,41h-4v-4h4V41z"/>
	<path class="st0" d="M115,47V29h-4v-4H79v4h-4v26h-4v4h-6v4h-6v4h-4v4h-8v-4h-4v-4h-4v-8h-4v24h4v4h4v4h4v4h4v4h4v16h8v-4h-4v-4h4
		v-4h4v-4h4v4h4v12h8v-4h-4V91h4v-4h4v-6h4V67h4v4h4v-8h-8v-8h16v-4H95v-4H115z M87,35h-4v-4h4V35z"/>
	<path class="st0" d="M112,47V29h-4v-4H76v4h-4v26h-4v4h-6v4h-6v4h-4v4h-8v-4h-4v-4h-4v-8h-4v24h4v4h4v4h4v4h4v4h4v16h8v-4h-4v-4h4
		v-4h4v-4h4v4h4v12h8v-4h-4V91h4v-4h4v-6h4V67h4v4h4v-8h-8v-8h16v-4H92v-4H112z M84,35h-4v-4h4V35z"/>
	<path class="st0" d="M110,47V29h-4v-4H74v4h-4v26h-4v4h-6v4h-6v4h-4v4h-8v-4h-4v-4h-4v-8h-4v24h4v4h4v4h4v4h4v4h4v16h8v-4h-4v-4h4
		v-4h4v-4h4v4h4v12h8v-4h-4V91h4v-4h4v-6h4V67h4v4h4v-8h-8v-8h16v-4H90v-4H110z M82,35h-4v-4h4V35z"/>
	<path d="M92,71h-4v14h-4v6h-4v4h-4v16h4v4h-8v-12h-4v-4h-4v4h-4v4h-4v4h4v4h-8V99h-4v-4h-4v-4h-4v-4h-4v-4h-4V59h4v8h4v4h4v4h8v-4
		h4v-4h6v-4h6v-4h4V33h4v-4h32v4h4v18H92v4h12v4H88v8h8v8h-4V71z M80,35v4h4v-4H80z"/>
</g>
</svg>
