<?xml version="1.0" encoding="utf-8"?>
<!-- Generator: Adobe Illustrator 27.9.0, SVG Export Plug-In . SVG Version: 6.00 Build 0)  -->
<svg version="1.1" id="Layer_1" xmlns="http://www.w3.org/2000/svg" xmlns:xlink="http://www.w3.org/1999/xlink" x="0px" y="0px"
	 viewBox="0 0 144 144" style="enable-background:new 0 0 144 144;" xml:space="preserve">
<style type="text/css">
	.st0{fill:#DAC7F5;}
</style>
<polygon class="st0" points="64,105 64,109 56,109 56,105 53,105 53,111 67,111 67,105 "/>
<polygon class="st0" points="111,29 111,25 74,25 74,29 70,29 70,33 69,33 69,55 66,55 66,59 60,59 60,63 54,63 54,67 50,67 50,71 
	47,71 47,67 43,67 43,63 39,63 39,55 30,55 30,59 29,59 29,85 33,85 33,89 37,89 37,93 41,93 41,97 45,97 45,101 49,101 49,105 
	52,105 52,99 48,99 48,95 44,95 44,91 40,91 40,87 36,87 36,83 32,83 32,59 36,59 36,67 40,67 40,71 44,71 44,75 52,75 52,71 56,71 
	56,67 62,67 62,63 68,63 68,59 72,59 72,33 76,33 76,29 108,29 108,33 112,33 112,51 92,51 92,55 104,55 104,59 88,59 88,67 96,67 
	96,75 92,75 92,71 88,71 88,85 84,85 84,91 80,91 80,95 76,95 76,111 80,111 80,115 72,115 72,103 68,103 68,99 64,99 64,103 
	60,103 60,105 63,105 63,105 69,105 69,117 83,117 83,107 79,107 79,97 83,97 83,93 87,93 87,87 91,87 91,77 99,77 99,63 91,63 
	91,61 107,61 107,53 115,53 115,29 "/>
<rect x="56" y="105" width="8" height="4"/>
<g>
	<polygon points="112,51 112,33 108,33 108,29 76,29 76,33 72,33 72,59 68,59 68,63 62,63 62,67 56,67 56,71 52,71 52,75 44,75 
		44,71 40,71 40,67 36,67 36,59 32,59 32,83 36,83 36,87 40,87 40,91 44,91 44,95 48,95 48,99 52,99 52,105 60,105 60,103 64,103 
		64,99 68,99 68,103 72,103 72,115 80,115 80,111 76,111 76,95 80,95 80,91 84,91 84,85 88,85 88,71 92,71 92,75 96,75 96,67 88,67 
		88,59 104,59 104,55 92,55 92,51 	"/>
	<rect x="80" y="35" width="4" height="4"/>
</g>
<rect x="80" y="35" class="st0" width="4" height="4"/>
<rect x="49" y="105" class="st0" width="4.1" height="2"/>
</svg>
