<svg width="200" height="200" viewBox="0 0 200 200" fill="none" xmlns="http://www.w3.org/2000/svg">
<mask id="mask0_1088_5121" style="mask-type:alpha" maskUnits="userSpaceOnUse" x="0" y="0" width="200" height="200">
<rect width="200" height="200" fill="black"/>
</mask>
<g mask="url(#mask0_1088_5121)">
<circle cx="104" cy="104" r="90" fill="black"/>
<circle cx="96" cy="96" r="88" fill="#FDFD8D" stroke="black" stroke-width="4"/>
<path fill-rule="evenodd" clip-rule="evenodd" d="M80.4653 28.8264C118.124 20.1591 155.652 43.1684 164.238 80.2942C172.824 117.42 149.194 154.506 111.535 163.174C73.8754 171.841 36.3478 148.831 27.7618 111.705C19.1761 74.5789 42.8062 37.494 80.4653 28.8264ZM42.4588 133.748C55.0012 151.064 75.8068 161.44 97.9924 160.615C97.8565 160.537 97.7192 160.459 97.5837 160.378C93.072 157.685 88.6808 153.402 84.617 147.969C80.2295 142.103 76.15 134.795 72.6619 126.453L42.4588 133.748ZM76.9431 125.419C80.2476 133.2 84.06 139.97 88.102 145.374C91.9508 150.52 95.9442 154.344 99.8172 156.656C103.677 158.96 107.295 159.697 110.558 158.946C113.82 158.195 116.748 155.951 119.206 152.193C121.673 148.422 123.583 143.24 124.783 136.932C126.07 130.164 126.516 122.219 126.019 113.567L76.9431 125.419ZM130.312 112.53C130.901 121.8 130.455 130.379 129.054 137.741C127.787 144.401 125.722 150.17 122.848 154.563C122.762 154.695 122.674 154.825 122.586 154.954C143.339 145.801 157.657 126.762 160.934 105.135L130.312 112.53ZM31.0228 87.1438C29.8987 94.7941 30.1561 102.764 31.9984 110.731C33.6089 117.694 36.31 124.131 39.8835 129.907L71.0367 122.383C68.7529 116.373 66.7769 109.896 65.2024 103.088C63.3527 95.0895 62.2029 87.2599 61.711 79.8643L31.0228 87.1438ZM66.0049 78.8455C66.4508 86.1938 67.5733 94.0448 69.439 102.113C71.0191 108.945 73.01 115.405 75.2988 121.353L125.693 109.182C125.127 103.003 124.094 96.5178 122.561 89.8865C120.666 81.6927 118.179 74.0351 115.297 67.1522L66.0049 78.8455ZM119.581 66.1356C122.453 73.0985 124.914 80.7672 126.797 88.9112C128.318 95.4878 129.364 101.951 129.962 108.152L161.46 100.544C161.95 94.2329 161.5 87.7501 160.001 81.2695C158.089 73 154.638 65.4747 150.014 58.9164L119.581 66.1356ZM69.4114 37.0441C50.0736 45.5734 36.3224 62.6887 31.8869 82.481L61.4934 75.4578C61.2476 67.7218 61.7493 60.5458 62.9456 54.258C64.2127 47.5979 66.2783 41.8287 69.1514 37.4359C69.2374 37.3043 69.3238 37.1734 69.4114 37.0441ZM92.1826 35.3444C88.3224 33.0405 84.7045 32.3019 81.4419 33.0528C78.1795 33.8039 75.2516 36.0487 72.7935 39.807C70.3272 43.5779 68.4172 48.7594 67.2172 55.067C66.1307 60.7779 65.6438 67.3269 65.816 74.4317L113.52 63.1153C110.59 56.78 107.328 51.2101 103.898 46.6248C100.049 41.4792 96.0557 37.6563 92.1826 35.3444ZM147.138 55.1401C134.437 39.7034 114.831 30.6103 94.0085 31.3838C94.1442 31.4618 94.2808 31.5413 94.4161 31.6221C98.9278 34.3152 103.319 38.5974 107.383 44.0303C111.154 49.072 114.696 55.1796 117.833 62.0923L147.138 55.1401Z" fill="black"/>
</g>
</svg>
