<svg width="24" height="24" viewBox="0 -4 24 32" fill="none" xmlns="http://www.w3.org/2000/svg">
<mask id="mask0_1152_4804" style="mask-type:alpha" maskUnits="userSpaceOnUse" x="0" y="0" width="24" height="24">
<rect width="24" height="24" fill="black"/>
</mask>
<g mask="url(#mask0_1152_4804)">
<path d="M21.8182 20.728H2.18182V18.5462H21.8182V20.728Z" fill="#1F1F1F"/>
<path d="M21.8182 3.27344V5.45526H24V18.5462H21.8182V16.3643H19.6364V14.1825H21.8182V7.63707H19.6364V5.45526H4.36364V7.63707H2.18182V14.1825H4.36364V16.3643H2.18182V18.5462H0V5.45526H2.18182V3.27344H21.8182Z" fill="#1F1F1F"/>
<path d="M6.54545 14.1825H4.36364V12.0007H6.54545V14.1825Z" fill="#1F1F1F"/>
<path d="M15.2727 14.1825H8.72727V12.0007H15.2727V14.1825Z" fill="#1F1F1F"/>
<path d="M19.6364 14.1825H17.4545V12.0007H19.6364V14.1825Z" fill="#1F1F1F"/>
<path d="M8.72727 12.0007H6.54545V9.81889H8.72727V12.0007Z" fill="#1F1F1F"/>
<path d="M17.4545 12.0007H15.2727V9.81889H17.4545V12.0007Z" fill="#1F1F1F"/>
<path d="M6.54545 9.81889H4.36364V7.63707H6.54545V9.81889Z" fill="#1F1F1F"/>
<path d="M19.6364 9.81889H17.4545V7.63707H19.6364V9.81889Z" fill="#1F1F1F"/>
</g>
</svg>
