<svg width="24" height="24" viewBox="0 0 24 24" fill="none" xmlns="http://www.w3.org/2000/svg">
<mask id="mask0_1083_4900" style="mask-type:alpha" maskUnits="userSpaceOnUse" x="0" y="0" width="24" height="24">
<rect width="24" height="24" fill="black"/>
</mask>
<g mask="url(#mask0_1083_4900)">
<path d="M13.0909 24H10.9091V19.6364H13.0909V24Z" fill="#1F1F1F"/>
<path d="M4.36364 21.8182H2.18182V19.6364H4.36364V21.8182Z" fill="#1F1F1F"/>
<path d="M21.8182 21.8182H19.6364V19.6364H21.8182V21.8182Z" fill="#1F1F1F"/>
<path d="M6.54545 19.6364H4.36364V17.4545H6.54545V19.6364Z" fill="#1F1F1F"/>
<path d="M19.6364 19.6364H17.4545V17.4545H19.6364V19.6364Z" fill="#1F1F1F"/>
<path d="M15.2727 17.4545H8.72727V15.2727H15.2727V17.4545Z" fill="#1F1F1F"/>
<path d="M8.72727 15.2727H6.54545V8.72727H8.72727V15.2727Z" fill="#1F1F1F"/>
<path d="M17.4545 15.2727H15.2727V8.72727H17.4545V15.2727Z" fill="#1F1F1F"/>
<path d="M4.36364 13.0909H0V10.9091H4.36364V13.0909Z" fill="#1F1F1F"/>
<path d="M24 13.0909H19.6364V10.9091H24V13.0909Z" fill="#1F1F1F"/>
<path d="M15.2727 8.72727H8.72727V6.54545H15.2727V8.72727Z" fill="#1F1F1F"/>
<path d="M6.54545 6.54545H4.36364V4.36364H6.54545V6.54545Z" fill="#1F1F1F"/>
<path d="M19.6364 6.54545H17.4545V4.36364H19.6364V6.54545Z" fill="#1F1F1F"/>
<path d="M4.36364 4.36364H2.18182V2.18182H4.36364V4.36364Z" fill="#1F1F1F"/>
<path d="M13.0909 4.36364H10.9091V0H13.0909V4.36364Z" fill="#1F1F1F"/>
<path d="M21.8182 4.36364H19.6364V2.18182H21.8182V4.36364Z" fill="#1F1F1F"/>
</g>
</svg>
